<?xml version="1.0" encoding="UTF-8" standalone="no"?>
<!-- Created with Inkscape (http://www.inkscape.org/) -->

<svg
   width="793.70081"
   height="1122.5197"
   id="svg2"
   sodipodi:version="0.32"
   inkscape:version="1.1.1 (3bf5ae0d25, 2021-09-20)"
   sodipodi:docname="0.svg"
   inkscape:output_extension="org.inkscape.output.svg.inkscape"
   version="1.1"
   viewBox="0 0 744.09448 1052.3622"
   xmlns:inkscape="http://www.inkscape.org/namespaces/inkscape"
   xmlns:sodipodi="http://sodipodi.sourceforge.net/DTD/sodipodi-0.dtd"
   xmlns:xlink="http://www.w3.org/1999/xlink"
   xmlns="http://www.w3.org/2000/svg"
   xmlns:svg="http://www.w3.org/2000/svg"
   xmlns:rdf="http://www.w3.org/1999/02/22-rdf-syntax-ns#"
   xmlns:cc="http://creativecommons.org/ns#"
   xmlns:dc="http://purl.org/dc/elements/1.1/">
  <defs
     id="defs4">
    <linearGradient
       inkscape:collect="always"
       id="linearGradient3598">
      <stop
         style="stop-color:#ff9b4b;stop-opacity:1;"
         offset="0"
         id="stop3600" />
      <stop
         style="stop-color:#ff9b4b;stop-opacity:0;"
         offset="1"
         id="stop3602" />
    </linearGradient>
    <linearGradient
       inkscape:collect="always"
       id="linearGradient3590">
      <stop
         style="stop-color:#ff9b4b;stop-opacity:1;"
         offset="0"
         id="stop3592" />
      <stop
         style="stop-color:#ff9b4b;stop-opacity:0;"
         offset="1"
         id="stop3594" />
    </linearGradient>
    <linearGradient
       inkscape:collect="always"
       id="linearGradient3394">
      <stop
         style="stop-color:#ff9b4b;stop-opacity:1;"
         offset="0"
         id="stop3396" />
      <stop
         style="stop-color:#ff9b4b;stop-opacity:0;"
         offset="1"
         id="stop3398" />
    </linearGradient>
    <linearGradient
       id="linearGradient3256">
      <stop
         style="stop-color:#e86746;stop-opacity:1;"
         offset="0"
         id="stop3258" />
      <stop
         id="stop3260"
         offset="0.23643894"
         style="stop-color:#e86746;stop-opacity:0.49803922;" />
      <stop
         style="stop-color:#e86746;stop-opacity:0.24705882;"
         offset="1"
         id="stop3262" />
      <stop
         style="stop-color:#e86746;stop-opacity:0;"
         offset="1"
         id="stop3264" />
    </linearGradient>
    <linearGradient
       id="linearGradient3204">
      <stop
         id="stop3206"
         offset="0"
         style="stop-color:#e86746;stop-opacity:1;" />
      <stop
         style="stop-color:#e86746;stop-opacity:0.49803922;"
         offset="0.24200037"
         id="stop3208" />
      <stop
         id="stop3210"
         offset="1"
         style="stop-color:#e86746;stop-opacity:0.24705882;" />
      <stop
         id="stop3212"
         offset="1"
         style="stop-color:#e86746;stop-opacity:0;" />
    </linearGradient>
    <linearGradient
       id="linearGradient3178">
      <stop
         style="stop-color:#e86746;stop-opacity:1;"
         offset="0"
         id="stop3180" />
      <stop
         id="stop3188"
         offset="0.23745346"
         style="stop-color:#e86746;stop-opacity:0.49803922;" />
      <stop
         style="stop-color:#e86746;stop-opacity:0.24705882;"
         offset="0.23745346"
         id="stop3190" />
      <stop
         style="stop-color:#e86746;stop-opacity:0;"
         offset="1"
         id="stop3182" />
    </linearGradient>
    <inkscape:perspective
       sodipodi:type="inkscape:persp3d"
       inkscape:vp_x="0 : 596.33858 : 1"
       inkscape:vp_y="0 : 1000 : 0"
       inkscape:vp_z="744.09445 : 596.33858 : 1"
       inkscape:persp3d-origin="372.04723 : 420.94487 : 1"
       id="perspective10" />
    <linearGradient
       inkscape:collect="always"
       xlink:href="#linearGradient3178"
       id="linearGradient3196"
       gradientUnits="userSpaceOnUse"
       gradientTransform="translate(145.58877,49.072899)"
       x1="326.79999"
       y1="422.14813"
       x2="326.79999"
       y2="378.16217" />
    <linearGradient
       inkscape:collect="always"
       xlink:href="#linearGradient3204"
       id="linearGradient3249"
       gradientUnits="userSpaceOnUse"
       gradientTransform="translate(93.782012,23.390721)"
       x1="326.79999"
       y1="422.14813"
       x2="326.79999"
       y2="378.16217" />
    <inkscape:perspective
       id="perspective3359"
       inkscape:persp3d-origin="372.04723 : 420.94487 : 1"
       inkscape:vp_z="744.09445 : 596.33858 : 1"
       inkscape:vp_y="0 : 1000 : 0"
       inkscape:vp_x="0 : 596.33858 : 1"
       sodipodi:type="inkscape:persp3d" />
    <linearGradient
       inkscape:collect="always"
       xlink:href="#linearGradient3256"
       id="linearGradient3372"
       gradientUnits="userSpaceOnUse"
       gradientTransform="matrix(-1,0,0,1,666.59896,-9.985938)"
       x1="326.79999"
       y1="412.94812"
       x2="326.39999"
       y2="369.36215" />
    <linearGradient
       inkscape:collect="always"
       xlink:href="#linearGradient3394"
       id="linearGradient3409"
       gradientUnits="userSpaceOnUse"
       x1="340.60001"
       y1="400.1622"
       x2="340.60001"
       y2="376.96219"
       gradientTransform="translate(44.53125,167.13501)" />
    <linearGradient
       inkscape:collect="always"
       xlink:href="#linearGradient3394"
       id="linearGradient3416"
       gradientUnits="userSpaceOnUse"
       x1="340.60001"
       y1="400.1622"
       x2="340.60001"
       y2="376.96219"
       gradientTransform="matrix(-1,0,0,1,685.33122,167.33501)" />
    <linearGradient
       inkscape:collect="always"
       xlink:href="#linearGradient3178"
       id="linearGradient3418"
       gradientUnits="userSpaceOnUse"
       gradientTransform="translate(-44.2,-28.8)"
       x1="326.79999"
       y1="422.14813"
       x2="326.79999"
       y2="378.16217" />
    <linearGradient
       inkscape:collect="always"
       xlink:href="#linearGradient3394"
       id="linearGradient3428"
       gradientUnits="userSpaceOnUse"
       gradientTransform="matrix(0,1,1,0,-95.43095,220.29718)"
       x1="340.60001"
       y1="396.96216"
       x2="323"
       y2="396.96216" />
    <linearGradient
       inkscape:collect="always"
       xlink:href="#linearGradient3590"
       id="linearGradient3596"
       x1="-20.384434"
       y1="403.27057"
       x2="-36.112469"
       y2="413.56244"
       gradientUnits="userSpaceOnUse"
       gradientTransform="translate(742.89437,-679.87838)" />
    <linearGradient
       inkscape:collect="always"
       xlink:href="#linearGradient3598"
       id="linearGradient3604"
       x1="301.10339"
       y1="-252.187"
       x2="301.10339"
       y2="-233.30447"
       gradientUnits="userSpaceOnUse"
       gradientTransform="translate(52.324219,875.4419)" />
    <linearGradient
       inkscape:collect="always"
       xlink:href="#linearGradient3598"
       id="linearGradient3631"
       gradientUnits="userSpaceOnUse"
       x1="301.10339"
       y1="-252.187"
       x2="301.10339"
       y2="-233.30447"
       gradientTransform="matrix(0.8765821,0,0,1,118.99491,-28.333334)" />
    <linearGradient
       inkscape:collect="always"
       xlink:href="#linearGradient3590"
       id="linearGradient3635"
       gradientUnits="userSpaceOnUse"
       gradientTransform="matrix(0.7900653,0.6130227,0.786333,-0.6178028,82.000029,-25.666662)"
       x1="-20.384434"
       y1="403.27057"
       x2="-36.112469"
       y2="413.56244" />
    <linearGradient
       inkscape:collect="always"
       xlink:href="#linearGradient3598"
       id="linearGradient3649"
       gradientUnits="userSpaceOnUse"
       gradientTransform="matrix(0.8765821,0,0,1,118.99491,-28.333334)"
       x1="301.10339"
       y1="-252.187"
       x2="301.10339"
       y2="-233.30447" />
    <linearGradient
       inkscape:collect="always"
       xlink:href="#linearGradient3590"
       id="linearGradient3651"
       gradientUnits="userSpaceOnUse"
       gradientTransform="matrix(0.7900653,0.6130227,0.786333,-0.6178028,82.000029,-25.666662)"
       x1="-20.384434"
       y1="403.27057"
       x2="-36.112469"
       y2="413.56244" />
    <linearGradient
       inkscape:collect="always"
       xlink:href="#linearGradient3598"
       id="linearGradient3658"
       gradientUnits="userSpaceOnUse"
       gradientTransform="matrix(0.8765821,0,0,1,118.99491,-28.333334)"
       x1="301.10339"
       y1="-252.187"
       x2="301.10339"
       y2="-233.30447" />
    <linearGradient
       inkscape:collect="always"
       xlink:href="#linearGradient3590"
       id="linearGradient3660"
       gradientUnits="userSpaceOnUse"
       gradientTransform="matrix(0.7900653,0.6130227,0.786333,-0.6178028,82.000029,-25.666662)"
       x1="-20.384434"
       y1="403.27057"
       x2="-36.112469"
       y2="413.56244" />
    <linearGradient
       inkscape:collect="always"
       xlink:href="#linearGradient3590"
       id="linearGradient3664"
       gradientUnits="userSpaceOnUse"
       gradientTransform="matrix(0.7900653,0.6130227,0.786333,-0.6178028,398.03448,-39.333329)"
       x1="-20.384434"
       y1="403.27057"
       x2="-36.112469"
       y2="413.56244" />
    <linearGradient
       inkscape:collect="always"
       xlink:href="#linearGradient3598"
       id="linearGradient3667"
       gradientUnits="userSpaceOnUse"
       gradientTransform="matrix(0.8765821,0,0,1,435.32824,-42.333334)"
       x1="301.10339"
       y1="-252.187"
       x2="301.10339"
       y2="-233.30447" />
    <linearGradient
       inkscape:collect="always"
       xlink:href="#linearGradient3598"
       id="linearGradient3676"
       gradientUnits="userSpaceOnUse"
       gradientTransform="matrix(0.8765821,0,0,1,435.32824,-42.333334)"
       x1="301.10339"
       y1="-252.187"
       x2="301.10339"
       y2="-233.30447" />
    <linearGradient
       inkscape:collect="always"
       xlink:href="#linearGradient3590"
       id="linearGradient3678"
       gradientUnits="userSpaceOnUse"
       gradientTransform="matrix(0.7900653,0.6130227,0.786333,-0.6178028,398.03448,-39.333329)"
       x1="-20.384434"
       y1="403.27057"
       x2="-36.112469"
       y2="413.56244" />
    <linearGradient
       inkscape:collect="always"
       xlink:href="#linearGradient3590"
       id="linearGradient3682"
       gradientUnits="userSpaceOnUse"
       gradientTransform="matrix(0.7900653,0.6130227,0.786333,-0.6178028,409.00009,-41.999996)"
       x1="-20.384434"
       y1="403.27057"
       x2="-36.112469"
       y2="413.56244" />
    <linearGradient
       inkscape:collect="always"
       xlink:href="#linearGradient3598"
       id="linearGradient3685"
       gradientUnits="userSpaceOnUse"
       gradientTransform="matrix(0.8765821,0,0,1,446.29385,-45.000001)"
       x1="301.10339"
       y1="-252.187"
       x2="301.10339"
       y2="-233.30447" />
  </defs>
  <sodipodi:namedview
     id="base"
     pagecolor="#ffffff"
     bordercolor="#666666"
     borderopacity="1.0"
     gridtolerance="10000"
     guidetolerance="10"
     objecttolerance="10"
     inkscape:pageopacity="0.0"
     inkscape:pageshadow="2"
     inkscape:zoom="1.88"
     inkscape:cx="371.80851"
     inkscape:cy="635.10638"
     inkscape:document-units="px"
     inkscape:current-layer="layer1"
     showgrid="false"
     showguides="true"
     inkscape:guide-bbox="true"
     inkscape:window-width="1920"
     inkscape:window-height="1011"
     inkscape:window-x="0"
     inkscape:window-y="0"
     inkscape:pagecheckerboard="0"
     inkscape:window-maximized="1">
    <sodipodi:guide
       orientation="1,0"
       position="548,1374"
       id="guide3186" />
    <sodipodi:guide
       orientation="0,1"
       position="378.6,726.39999"
       id="guide3192" />
    <sodipodi:guide
       orientation="0,1"
       position="89,1238"
       id="guide3432" />
    <sodipodi:guide
       orientation="1,0"
       position="0,1446"
       id="guide3434" />
    <sodipodi:guide
       orientation="0,1"
       position="122,1107"
       id="guide3436" />
    <sodipodi:guide
       orientation="1,0"
       position="-260,1247"
       id="guide3438" />
    <sodipodi:guide
       orientation="1,0"
       position="170,1243"
       id="guide3440" />
    <sodipodi:guide
       orientation="1,0"
       position="70,1229"
       id="guide3442" />
    <sodipodi:guide
       orientation="1,0"
       position="-70,1231"
       id="guide3444" />
    <sodipodi:guide
       orientation="1,0"
       position="-220,1114"
       id="guide3446" />
    <sodipodi:guide
       orientation="1,0"
       position="220,1145"
       id="guide3448" />
    <sodipodi:guide
       orientation="1,0"
       position="-160,1221"
       id="guide3452" />
    <sodipodi:guide
       orientation="1,0"
       position="699,1380.3333"
       id="guide3669" />
  </sodipodi:namedview>
  <metadata
     id="metadata7">
    <rdf:RDF>
      <cc:Work
         rdf:about="">
        <dc:format>image/svg+xml</dc:format>
        <dc:type
           rdf:resource="http://purl.org/dc/dcmitype/StillImage" />
      </cc:Work>
    </rdf:RDF>
  </metadata>
  <g
     inkscape:label="Layer 1"
     inkscape:groupmode="layer"
     id="layer1">
    <rect
       style="opacity:1;fill:#e86746;fill-opacity:1;stroke:#000000;stroke-width:0;stroke-miterlimit:4;stroke-dasharray:none;stroke-opacity:1"
       id="rect2383"
       width="229"
       height="142"
       x="319"
       y="208.36218" />
    <g
       id="g3365"
       transform="translate(-4.4,-80)">
      <path
         sodipodi:nodetypes="csssc"
         id="path3155"
         d="m 295.59896,382.89427 c -0.0748,2.17126 -16.01285,15.98867 -11.22396,7.10608 3.87073,-7.17957 -10.775,2.17664 -10.775,-7.10608 0,-9.89359 14.80386,0.33358 10.775,-7.10607 -4.71406,-8.70494 11.37361,5.20129 11.22396,7.10607 z"
         style="fill:url(#linearGradient3418);fill-opacity:1;stroke:#000000;stroke-width:0;stroke-miterlimit:4;stroke-opacity:1" />
    </g>
    <path
       style="fill:#e86746;fill-opacity:1;stroke:#000000;stroke-width:0;stroke-miterlimit:4;stroke-opacity:1"
       d="m 309.99306,104.75599 c -14,26.444 -213.999997,180 -150,80 51.7295,-80.82734 -143.999997,24.50456 -143.999997,-80 0,-111.381836 197.842727,3.75536 143.999997,-79.999996 -62.999997,-97.999994 139,56.556 150,79.999996 z"
       id="path3176"
       sodipodi:nodetypes="csssc" />
    <path
       style="fill:url(#linearGradient3196);fill-opacity:1;stroke:#000000;stroke-width:0;stroke-miterlimit:4;stroke-opacity:1"
       d="m 485.38773,460.76717 c -0.0748,2.17126 -16.01285,15.98867 -11.22396,7.10608 3.87073,-7.17957 -10.775,2.17664 -10.775,-7.10608 0,-9.89359 14.80386,0.33358 10.775,-7.10607 -4.71406,-8.70494 11.37361,5.20129 11.22396,7.10607 z"
       id="path3194"
       sodipodi:nodetypes="csssc" />
    <g
       id="g3368"
       transform="translate(55.98252,16.776661)"
       inkscape:export-filename="/home/chunxin/Desktop/autumn/Doc_Images/prev.png"
       inkscape:export-xdpi="90"
       inkscape:export-ydpi="90">
      <rect
         inkscape:export-ydpi="90"
         inkscape:export-xdpi="90"
         inkscape:export-filename="/home/chunxin/Desktop/autumn/Doc_Images/prev.png"
         y="391.76218"
         x="326.79999"
         height="20"
         width="22"
         id="rect3198"
         style="fill:#363636;fill-opacity:1;stroke:#000000;stroke-width:0;stroke-miterlimit:4;stroke-dasharray:none;stroke-opacity:1" />
      <path
         inkscape:export-ydpi="90"
         inkscape:export-xdpi="90"
         inkscape:export-filename="/home/chunxin/Desktop/autumn/Doc_Images/prev.png"
         sodipodi:nodetypes="csssc"
         id="path3200"
         d="m 326.8,401.70833 c 0.0748,2.17126 16.01285,15.98867 11.22396,7.10608 -3.87073,-7.17957 10.775,2.17664 10.775,-7.10608 0,-9.89359 -14.80386,0.33358 -10.775,-7.10607 4.71406,-8.70494 -11.37361,5.20129 -11.22396,7.10607 z"
         style="fill:url(#linearGradient3372);fill-opacity:1;stroke:#000000;stroke-width:0;stroke-miterlimit:4;stroke-opacity:1" />
    </g>
    <rect
       style="fill:#363636;fill-opacity:1;stroke:#000000;stroke-width:0;stroke-miterlimit:4;stroke-dasharray:none;stroke-opacity:1"
       id="rect3242"
       width="22"
       height="20"
       x="411.58304"
       y="425.13885"
       inkscape:export-filename="/home/chunxin/Desktop/autumn/Doc_Images/next.png"
       inkscape:export-xdpi="90"
       inkscape:export-ydpi="90" />
    <path
       style="fill:url(#linearGradient3249);fill-opacity:1;stroke:#000000;stroke-width:0;stroke-miterlimit:4;stroke-opacity:1"
       d="m 433.58096,435.08499 c -0.0748,2.17126 -16.01284,15.98867 -11.22395,7.10608 3.87073,-7.17957 -10.775,2.17664 -10.775,-7.10608 0,-9.89359 14.80386,0.33358 10.775,-7.10607 -4.71406,-8.70494 11.37361,5.20129 11.22395,7.10607 z"
       id="path3244"
       sodipodi:nodetypes="csssc"
       inkscape:export-filename="/home/chunxin/Desktop/autumn/Doc_Images/next.png"
       inkscape:export-xdpi="90"
       inkscape:export-ydpi="90" />
    <path
       style="fill:url(#linearGradient3409);fill-opacity:1;stroke:#000000;stroke-width:0;stroke-miterlimit:4;stroke-opacity:1"
       d="m 374.13229,564.04334 c 0.0748,2.17126 16.01285,15.98867 11.22395,7.10608 -3.87072,-7.17957 10.775,2.17664 10.775,-7.10608 0,-9.89359 -14.80386,0.33358 -10.775,-7.10607 4.71406,-8.70494 -11.37361,5.20129 -11.22395,7.10607 z"
       id="path3378"
       sodipodi:nodetypes="csssc"
       inkscape:export-filename="/home/chunxin/apps/dogen-2.0/style/lognovel/themes/default/navig/prev.png"
       inkscape:export-xdpi="90"
       inkscape:export-ydpi="90" />
    <path
       style="fill:#e86746;fill-opacity:1;stroke:#000000;stroke-width:0;stroke-miterlimit:4;stroke-opacity:1"
       d="m 337.72306,400.1929 c 2.57788,1.04762 22.67139,15.48623 10.99878,12.02449 -2.88396,-0.85529 8.98883,9.57551 -10.99878,9.97551 -18.25431,0.369 -5.27185,-11.96667 -11.19879,-10.57551 -5.51433,1.29431 8.91336,-10.60136 11.19879,-11.42449 z"
       id="path3390"
       sodipodi:nodetypes="csscc" />
    <path
       style="fill:url(#linearGradient3416);fill-opacity:1;stroke:#000000;stroke-width:0;stroke-miterlimit:4;stroke-opacity:1"
       d="m 355.73018,564.24334 c -0.0748,2.17126 -16.01285,15.98867 -11.22395,7.10608 3.87072,-7.17957 -10.775,2.17664 -10.775,-7.10608 0,-9.89359 14.80386,0.33358 10.775,-7.10607 -4.71406,-8.70494 11.37361,5.20129 11.22395,7.10607 z"
       id="path3414"
       sodipodi:nodetypes="csssc"
       inkscape:export-filename="/home/chunxin/apps/dogen-2.0/style/lognovel/themes/default/navig/next.png"
       inkscape:export-xdpi="90"
       inkscape:export-ydpi="90" />
    <path
       style="fill:url(#linearGradient3428);fill-opacity:1;stroke:#000000;stroke-width:0;stroke-miterlimit:4;stroke-opacity:1"
       d="m 301.47737,549.89822 c 2.17126,0.0748 15.98867,16.01285 7.10608,11.22395 -7.17957,-3.87072 2.17664,10.775 -7.10608,10.775 -9.89359,0 0.33358,-14.80386 -7.10607,-10.775 -8.70494,4.71406 5.20129,-11.37361 7.10607,-11.22395 z"
       id="path3426"
       sodipodi:nodetypes="csssc"
       inkscape:export-filename="/home/chunxin/apps/dogen-2.0/style/lognovel/themes/default/navig/up.png"
       inkscape:export-xdpi="90"
       inkscape:export-ydpi="90" />
    <path
       style="fill:#e86746;fill-opacity:1;stroke:#000000;stroke-width:0;stroke-miterlimit:4;stroke-opacity:1"
       d="m 0,-307.63781 c -26.444,14 -160,121.99999 -152.38999,121.99999 C -70,-185.63785 -220,-54.637817 0,-55.637817 c 220,0 70,-130.000003 139.61001,-130.000003 C 171.01592,-185.63782 23.444,-296.63781 0,-307.63781 Z"
       id="path3430"
       sodipodi:nodetypes="cscsc" />
    <path
       style="fill:#e86746;fill-opacity:1;stroke:#000000;stroke-width:0;stroke-miterlimit:4;stroke-opacity:1"
       d="m 496.63367,-140.13782 c -1.68022,1.05119 -16.52004,12.16382 -8.2848,12.16382 5.67971,0 -5.59639,9.83618 8.2848,9.83618 13.97849,0 2.60508,-9.83618 8.80709,-9.83618 8.34834,0 -7.31749,-11.33788 -8.80709,-12.16382 z"
       id="path3450"
       sodipodi:nodetypes="cscsc" />
    <g
       id="g1092"
       inkscape:export-filename="/home/chunxin/apps/dogen-2.0/style/lognovel/themes/default/navig/home.png"
       inkscape:export-xdpi="90"
       inkscape:export-ydpi="90">
      <rect
         y="616.70575"
         x="343.97464"
         height="13.098349"
         width="18.905956"
         id="rect3454"
         style="fill:url(#linearGradient3604);fill-opacity:1;stroke:#000000;stroke-width:0;stroke-miterlimit:4;stroke-dasharray:none;stroke-opacity:1" />
      <rect
         transform="matrix(0.7900653,0.6130227,0.78633304,-0.61780284,0,0)"
         y="-285.6886"
         x="717.62488"
         height="13.945255"
         width="13.966417"
         id="rect3456"
         style="fill:url(#linearGradient3596);fill-opacity:1;stroke:#000000;stroke-width:0;stroke-miterlimit:4;stroke-dasharray:none;stroke-opacity:1" />
      <rect
         y="608.84753"
         x="357.38159"
         height="7.0203519"
         width="4"
         id="rect3462"
         style="fill:#ff9b4b;fill-opacity:1;stroke:#000000;stroke-width:0;stroke-miterlimit:4;stroke-dasharray:none;stroke-opacity:1" />
    </g>
    <g
       id="g3687"
       inkscape:export-filename="/home/chunxin/Desktop/autumn/Doc_Images/home.png"
       inkscape:export-xdpi="90"
       inkscape:export-ydpi="90">
      <rect
         y="-311.97113"
         x="699"
         height="22"
         width="22"
         id="rect3614"
         style="fill:#363636;fill-opacity:1;stroke:#000000;stroke-width:0;stroke-miterlimit:4;stroke-dasharray:none;stroke-opacity:1" />
      <rect
         ry="1.6666666"
         y="-303.73615"
         x="701.9494"
         height="13.098349"
         width="16.572622"
         id="rect3616"
         style="fill:url(#linearGradient3685);fill-opacity:1;stroke:#000000;stroke-width:0;stroke-miterlimit:4;stroke-dasharray:none;stroke-opacity:1" />
      <path
         sodipodi:nodetypes="ccccc"
         id="rect3618"
         d="m 699,-301.02232 11.03438,-0.43826 10.96561,0.38458 -11.03438,-8.56173 z"
         style="fill:url(#linearGradient3682);fill-opacity:1;stroke:#000000;stroke-width:0;stroke-miterlimit:4;stroke-opacity:1" />
      <rect
         y="-309.9277"
         x="713.6897"
         height="7.0203519"
         width="4"
         id="rect3620"
         style="fill:#ff9b4b;fill-opacity:1;stroke:#000000;stroke-width:0;stroke-miterlimit:4;stroke-dasharray:none;stroke-opacity:1" />
    </g>
    <rect
       style="fill:#ffffff;fill-opacity:1;fill-rule:nonzero;stroke:#becad6;stroke-width:0;stroke-miterlimit:4;stroke-dasharray:none;stroke-opacity:0.941176"
       id="rect2537"
       width="134"
       height="47"
       x="424"
       y="-503.63782"
       ry="0"
       inkscape:export-filename="/home/chunxin/htdocs/development/XML/S.XDG.V2.dcux/latest/images/logo.png"
       inkscape:export-xdpi="90"
       inkscape:export-ydpi="90" />
    <g
       id="g3972"
       transform="matrix(0.1273434,0,0,0.1318019,443.36058,-670.23119)"
       style="fill:#a6a6a6;fill-opacity:1"
       inkscape:export-filename="/home/chunxin/htdocs/development/XML/S.XDG.V2.dcux/latest/images/logo.png"
       inkscape:export-xdpi="90"
       inkscape:export-ydpi="90">
      <path
         d="m 123.72222,1274.1226 c -10.34251,1.5059 -20.88584,9.6379 -27.71391,21.1833 -2.209076,3.815 -6.024762,8.5336 -8.635498,10.6418 -13.555714,11.1439 -18.576349,15.9628 -24.801933,23.7936 -3.715267,4.7186 -7.33013,8.3328 -7.832194,8.0316 -1.707012,-1.1044 0.100419,-17.2679 2.711156,-24.7975 1.305352,-3.7146 3.614847,-8.4332 5.020634,-10.4411 4.819798,-6.2245 -0.502063,-2.2087 -8.434675,6.4253 -9.539207,10.2402 -11.346638,14.256 -11.949105,25.9018 -0.40166,7.63 -0.100419,10.6419 1.707013,16.3644 1.907835,6.4253 2.008254,8.5335 1.50619,24.8979 -0.602482,16.5651 0.100419,26.6046 2.209076,31.9255 0.702886,1.7067 0.502064,1.7067 -2.409898,0.2008 -7.430549,-3.815 -17.3714,-19.1754 -18.87759,-29.2149 -0.702889,-4.8189 -0.803302,-4.9193 -1.606603,-2.0079 -1.405778,4.7186 0.100412,24.396 2.108666,29.1145 2.911968,6.4253 10.744156,14.2561 19.279235,19.2758 7.631371,4.4174 10.543333,7.1281 21.789552,20.1794 2.911977,3.4134 8.936739,8.9351 13.254488,12.2481 4.317734,3.3131 8.233838,6.5257 8.635483,7.1281 1.104546,1.8071 -18.174689,0.502 -24.099047,-1.6063 -2.71114,-1.004 -7.731775,-3.9154 -11.246219,-6.6261 -3.514445,-2.7107 -6.426407,-4.5178 -6.426407,-4.1162 0,1.9075 13.354877,17.3683 17.270981,19.9786 10.543333,7.2284 24.601111,8.8347 37.956005,4.5177 6.02476,-2.0078 7.93259,-2.1082 25.10317,-1.6063 10.24209,0.3012 21.18707,0.2008 24.40027,-0.3012 3.51445,-0.6023 5.72354,-0.6023 5.72354,-0.1003 0,0.6023 -2.40991,3.313 -5.32188,6.2244 -5.62311,5.5217 -16.26685,11.6458 -23.7978,13.7541 l -4.51857,1.3051 4.51857,0.7028 c 2.51032,0.4016 8.13342,0.3012 12.55159,-0.2008 14.15818,-1.8071 25.50481,-9.0355 32.13206,-20.6813 4.61897,-8.132 7.33011,-11.1438 13.55571,-15.3604 6.92847,-4.7186 17.37139,-14.9588 23.29575,-22.6892 2.20907,-3.0119 4.41815,-5.4213 4.92021,-5.4213 0.50206,0 0.90372,2.811 0.90372,6.2244 0,11.1439 -3.81568,21.7857 -11.04539,30.8212 l -4.31775,5.4213 4.41815,-2.4094 c 5.82394,-3.2127 18.17471,-15.3604 20.78543,-20.581 2.71115,-5.3209 4.41816,-15.7619 3.61486,-22.0868 -0.30124,-2.7107 -1.50619,-8.5336 -2.61074,-12.9509 -1.80741,-7.1281 -1.90783,-8.8348 -0.80329,-15.26 1.30536,-7.4293 0.90371,-34.3351 -0.50206,-37.7485 -1.60661,-3.7146 2.4099,-1.6063 7.63136,4.0158 5.22145,5.8229 11.94912,17.9707 11.94912,21.8861 0,1.1043 0.40164,2.6102 0.9037,3.313 1.30537,2.1083 2.10868,-9.8387 1.10455,-16.3644 -2.51032,-15.6615 -7.83219,-23.1912 -23.29576,-32.9294 -3.81567,-2.4095 -8.63548,-7.2285 -14.76066,-14.6577 -7.9326,-9.5375 -17.3714,-18.3722 -26.20771,-24.3959 l -2.51031,-1.7067 h 3.81567 c 11.64788,-0.2008 26.0069,3.9154 33.33702,9.5375 2.51032,1.9075 4.51858,3.1122 4.51858,2.6102 0,-1.1043 -12.14995,-14.8584 -15.26275,-17.2679 -1.50619,-1.1043 -5.32186,-3.313 -8.53508,-4.8189 -7.83217,-3.6142 -19.37963,-3.7146 -30.32463,-0.4016 -6.72764,2.1083 -7.93259,2.2087 -14.15818,1.1043 -4.41817,-0.8031 -12.85283,-1.0039 -24.19946,-0.7027 l -17.3714,0.502 5.92436,-5.321 c 6.92847,-6.2244 15.56396,-10.6418 24.09904,-12.6497 l 6.02476,-1.3051 -5.52269,-0.7028 c -7.02889,-0.8032 -13.25449,-0.7028 -19.58048,0.2008 z m 20.08254,28.5121 c 1.80742,1.4055 3.91609,4.2166 4.61897,6.1241 1.10455,2.9114 2.10868,3.815 5.4223,4.7185 2.20908,0.6024 8.7359,3.1123 14.359,5.6222 10.14169,4.4173 10.54334,4.5177 15.16233,3.313 6.22558,-1.6063 9.43878,-0.7028 13.15407,3.5138 3.2132,3.815 3.81567,7.7304 1.90783,13.2521 -0.90371,2.7107 -0.50206,4.4174 4.01651,15.1596 2.81156,6.7265 5.12105,12.951 5.12105,13.8545 0,2.7107 1.30535,4.2166 5.02064,6.1241 7.83217,4.0158 9.74003,11.947 4.61897,18.7738 -1.60659,2.1083 -4.21733,4.317 -5.82394,4.9194 -2.10866,0.8031 -3.11278,2.1082 -3.91609,5.0197 -0.60248,2.2087 -3.1128,8.6339 -5.62311,14.3564 -3.91609,9.0356 -4.41816,10.8427 -3.41403,12.951 1.60661,3.6142 1.40577,9.8387 -0.60248,13.8545 -2.61072,5.4213 -8.83631,7.0276 -16.26686,4.0157 -3.71526,-1.5059 -4.11691,-1.4055 -8.33425,0.7028 -2.30948,1.3051 -8.63549,3.9154 -13.85694,5.9233 -8.73592,3.313 -9.74005,4.0158 -11.8487,7.8308 -1.30537,2.4095 -3.51445,5.0197 -4.81982,5.9233 -5.32187,3.4134 -14.76066,1.1043 -17.4718,-4.4174 -2.40991,-4.8189 -4.11693,-6.2245 -9.63962,-7.8308 -3.01239,-0.9035 -8.93673,-3.1122 -13.15407,-5.1201 -8.033019,-3.6142 -9.639613,-3.9154 -15.162312,-2.8111 -4.719393,0.9036 -11.848701,-2.0079 -13.756536,-5.6221 -1.707028,-3.313 -2.008254,-9.3367 -0.502064,-12.0473 0.80329,-1.506 0.200823,-3.815 -2.610736,-10.1399 -2.008254,-4.5178 -4.518571,-10.7423 -5.522698,-13.8545 -1.506191,-4.317 -3.313622,-6.8268 -7.932597,-11.1438 -5.723536,-5.3209 -6.024762,-5.8229 -6.024762,-10.2403 0,-5.3209 3.012381,-9.7383 7.932597,-11.8466 2.309495,-0.9035 3.514445,-2.5098 5.121054,-6.626 1.10453,-3.0119 2.008254,-5.8229 2.008254,-6.2245 0,-0.4016 1.907835,-4.6182 4.21733,-9.5375 3.815685,-8.132 4.116911,-9.1359 3.012381,-12.1478 -2.610736,-7.2284 -1.004127,-13.0513 4.920216,-16.5651 2.409914,-1.5059 3.916104,-1.6063 9.740028,-0.9036 6.526826,0.9036 7.229727,0.8032 14.861085,-2.5098 4.31775,-1.9075 10.24209,-4.2166 12.95324,-5.1202 6.52683,-2.1083 6.92847,-2.4095 9.03715,-7.0276 3.71526,-7.8308 11.9491,-9.6379 19.07841,-4.2166 z"
         id="path3974"
         style="fill:#a6a6a6;fill-opacity:1" />
      <path
         d="m 126.7346,1320.9151 c -20.78544,2.9114 -40.566737,17.7699 -49.60388,37.1461 -4.418153,9.5375 -6.125165,17.2679 -6.125165,28.1105 0,11.2442 1.707012,18.9746 6.526825,28.6125 8.233838,16.8663 23.59698,29.3153 42.17333,34.1342 7.83218,2.0079 24.29987,2.1083 32.13207,0 9.03714,-2.309 21.38789,-8.7343 27.81431,-14.5572 7.63135,-6.8268 15.26273,-18.573 18.57635,-28.6125 3.41402,-10.3407 3.81568,-27.6086 0.90371,-37.1461 -5.82394,-18.8742 -16.96974,-32.2267 -34.24072,-40.9611 -11.64788,-5.8229 -26.20772,-8.4331 -38.15683,-6.7264 z m 12.04952,12.3486 c 1.10454,0.6023 1.5062,1.1043 1.00413,1.3051 -0.60248,0.1004 -2.30949,0.502 -3.81568,0.9035 -1.60661,0.3012 -5.02064,2.5099 -7.53096,4.9194 -7.22971,6.5256 -10.34251,8.6339 -12.85282,8.6339 -3.41403,0 -3.71527,-1.4055 -1.30537,-6.5256 2.30949,-4.9194 6.92848,-9.136 11.64788,-10.5415 3.11278,-1.0039 9.84044,-0.3012 12.85282,1.3052 z m 28.5172,7.2284 c 1.60661,0.8031 4.21733,3.1122 5.82394,5.2205 4.81982,6.1241 4.92022,6.6261 0.60247,4.5178 -5.5227,-2.8111 -9.94085,-3.5139 -16.56809,-2.4095 -4.92022,0.8032 -6.22559,0.6024 -8.83631,-0.9036 -1.60661,-1.0039 -3.01238,-2.309 -3.01238,-2.9114 0,-0.6024 1.90784,-2.0079 4.31773,-3.0119 5.12106,-2.309 13.75656,-2.6102 17.67264,-0.5019 z m -65.77031,8.0316 c -2.209078,4.3169 -2.510319,6.0236 -2.108675,12.0473 0.40166,6.0237 0.100419,7.63 -2.008254,11.2442 -1.305352,2.4095 -2.61072,4.317 -2.911962,4.317 -0.301241,0 -1.405771,-1.9075 -2.409898,-4.317 -2.209092,-4.8189 -2.610736,-14.256 -0.803305,-18.2718 1.104531,-2.4095 11.647864,-11.0434 12.451164,-10.2403 0.20083,0.2008 -0.8033,2.5099 -2.20907,5.2206 z m 78.12108,16.4647 c 6.42641,4.1162 10.04127,9.1359 10.64374,15.0592 0.40166,4.7186 -0.90371,9.1359 -2.81155,9.1359 -0.60248,0 -1.00412,-0.7027 -1.00412,-1.6063 0,-3.5138 -3.61487,-8.8347 -8.23386,-12.2481 -3.51444,-2.7107 -5.12104,-4.7186 -5.92434,-7.5296 -1.70701,-6.5257 0.20082,-7.3289 7.33013,-2.8111 z m -34.54198,3.9154 c 4.71941,2.2087 9.43881,9.6379 9.94087,16.0632 1.10453,12.3485 -12.45119,23.1912 -24.29987,19.2758 -4.71941,-1.6064 -10.44293,-6.6261 -12.14994,-10.7423 -3.1128,-7.4292 -0.30124,-19.1754 5.52269,-23.2916 6.02477,-4.3169 13.65614,-4.8189 20.98625,-1.3051 z m -54.423676,23.7936 c 6.326003,7.3288 8.735901,11.2442 8.033016,13.0513 -0.903709,2.4095 -3.715267,1.8071 -9.237965,-1.9075 -6.828067,-4.6182 -8.836321,-8.9352 -8.133435,-17.2679 0.602482,-8.4332 1.707028,-9.9391 3.213219,-4.1162 0.803289,3.0118 2.811543,6.5257 6.125165,10.2403 z m 87.961526,7.63 c 4.7194,9.4371 2.61072,19.1754 -5.32187,24.8979 -5.42228,4.0158 -6.32601,3.9154 -3.81569,-0.3012 2.51032,-4.4174 3.51445,-12.3486 2.00825,-16.9667 -1.10453,-3.1123 -0.9037,-4.1162 0.90373,-7.7304 2.4099,-4.819 3.81567,-4.819 6.22558,0.1004 z m -80.129333,19.3762 c 2.711143,1.8071 5.522703,2.5098 12.049523,3.1122 7.33013,0.6024 8.93672,1.0039 11.0454,3.2126 1.50619,1.4056 2.61073,2.9115 2.61073,3.4135 0,0.9035 -8.93674,2.9114 -12.85282,2.9114 -6.32601,-0.1004 -13.254477,-5.2205 -17.170582,-12.8505 -1.50619,-2.9115 -0.100403,-2.8111 4.317749,0.2008 z m 59.544733,4.1161 c 0.20082,0.6024 -1.10455,3.5139 -2.91198,6.5257 -4.51857,7.4292 -9.33837,10.1399 -17.27098,9.8387 -6.62723,-0.3012 -8.63548,-2.2087 -3.41402,-3.313 2.00825,-0.502 5.72352,-3.1123 9.84044,-7.0277 3.61485,-3.4134 7.22971,-6.5256 8.03302,-6.8268 2.20908,-0.8032 5.32186,-0.4016 5.72352,0.8031 z"
         id="path3976"
         style="fill:#a6a6a6;fill-opacity:1" />
      <path
         d="m 125.63006,1374.9189 c -3.91609,3.9154 -4.41816,4.819 -4.41816,9.0356 0,18.573 23.89821,22.388 29.22009,4.7185 1.50619,-5.1201 -0.10041,-10.1398 -4.81981,-14.6576 -3.31361,-3.2126 -4.11692,-3.5138 -9.63961,-3.5138 -5.72352,0 -6.12518,0.2008 -10.34251,4.4173 z"
         id="path3978"
         style="fill:#a6a6a6;fill-opacity:1" />
    </g>
    <g
       style="fill:#a6a6a6;fill-opacity:1"
       id="g2512"
       transform="matrix(0.4645814,0,0,0.4761239,172.2673,-1304.2436)"
       inkscape:export-filename="/home/chunxin/htdocs/development/XML/S.XDG.V2.dcux/latest/images/logo.png"
       inkscape:export-xdpi="90"
       inkscape:export-ydpi="90">
      <path
         d="m 674.53817,1706.1592 c 0.0917,2.3224 0.0611,3.2511 -0.21386,3.2511 -0.18333,0 -0.33609,-0.1238 -0.33609,-0.2476 0,-0.6503 -1.7721,-0.9909 -5.13294,-0.9909 -4.36912,0 -5.71345,0.3406 -6.32452,1.5482 -0.54996,1.0838 -0.67217,10.3419 -0.12221,11.5495 0.5805,1.3005 1.40544,1.5481 5.68289,1.703 3.94137,0.1238 5.89678,-0.1549 5.89678,-0.898 0,-0.1548 0.15276,-0.2787 0.30553,-0.2787 0.18332,0 0.30553,0.2168 0.30553,0.4645 0,0.3715 0.42775,0.4645 2.13872,0.4645 h 2.13872 v -9.9084 -9.9084 h -2.26093 -2.26094 z m -0.42774,3.9324 c 0.39719,0.5573 0.48885,1.6411 0.48885,5.4186 0,2.57 -0.12221,5.047 -0.30553,5.4806 -0.27498,0.805 -0.30553,0.805 -3.94137,0.805 -3.02476,0 -3.66638,-0.093 -3.81915,-0.4954 -0.36664,-0.9599 -0.21387,-11.1159 0.18332,-11.5184 0.24443,-0.2478 1.49711,-0.3717 3.63583,-0.3717 3.05532,0 3.3303,0.062 3.75805,0.6813 z"
         id="path3980"
         style="fill:#a6a6a6;fill-opacity:1" />
      <path
         d="m 760.23992,1708.6053 c -1.58876,0.7432 -1.77208,1.3624 -1.77208,6.6882 0,2.6318 0.0917,5.1709 0.24442,5.6354 0.4583,1.6411 1.3749,1.9507 6.72171,2.0745 6.38562,0.1238 8.00495,-0.093 9.13541,-1.2076 l 0.85549,-0.8669 v -5.2948 -5.2949 l -0.88604,-0.9907 -0.88605,-1.0218 -6.23286,-0.062 c -4.8274,-0.062 -6.41616,0 -7.18,0.3406 z m 10.4492,6.9978 v 6.0379 h -3.81915 -3.81915 l -0.0917,-5.8521 c -0.0611,-4.4898 0.0306,-5.9141 0.30554,-6.1308 0.21387,-0.1239 1.98597,-0.2167 3.91081,-0.1858 l 3.51362,0.093 z"
         id="path3982"
         style="fill:#a6a6a6;fill-opacity:1" />
      <path
         d="m 681.84039,1708.8221 c -1.09992,0.6502 -1.43601,2.1984 -1.43601,6.781 0,4.7374 0.33609,6.1309 1.58878,6.8739 0.5194,0.3096 2.29148,0.4026 6.81336,0.4026 5.53014,0 6.11064,-0.062 6.20231,-0.5263 0.0916,-0.4955 -0.36664,-0.5575 -4.88851,-0.6193 l -4.98019,-0.093 v -6.0379 -6.0379 l 4.82741,-0.093 c 3.97192,-0.062 4.79686,-0.1548 4.79686,-0.5264 0,-0.4025 -0.94715,-0.4643 -6.17175,-0.4643 -3.84971,0 -6.41617,0.1547 -6.75226,0.3405 z"
         id="path3984"
         style="fill:#a6a6a6;fill-opacity:1" />
      <path
         d="m 696.29206,1714.3336 c 0,3.2202 0.12221,6.2236 0.30553,6.6572 0.58051,1.6101 1.55821,1.8888 6.29396,1.8888 3.81916,0 4.39967,-0.062 4.98017,-0.5884 0.64162,-0.5882 0.64162,-0.5882 0.64162,0.062 0,0.6501 0.15277,0.6811 2.29149,0.6811 h 2.29149 v -7.2764 -7.2764 h -2.29149 -2.29149 v 6.3165 c 0,5.0161 -0.0917,6.3784 -0.42774,6.6571 -0.27498,0.2478 -1.55822,0.3406 -3.7275,0.2788 l -3.33029,-0.093 -0.0917,-6.5953 -0.0611,-6.5641 h -2.29149 -2.29149 z"
         id="path3986"
         style="fill:#a6a6a6;fill-opacity:1" />
      <path
         d="m 718.10706,1712.2591 3.20808,3.7465 -3.20808,3.437 c -3.51364,3.7776 -3.51364,3.9015 -0.21389,3.3131 1.64988,-0.3096 1.89431,-0.4954 3.60528,-2.3842 l 1.8332,-2.0435 1.46655,1.8887 c 0.82494,1.0528 1.71098,2.0127 1.98597,2.1675 0.30552,0.1548 1.55821,0.4024 2.81088,0.5263 l 2.29149,0.2167 -0.61106,-0.743 c -0.33608,-0.4026 -1.77208,-2.0437 -3.17753,-3.5918 -2.26094,-2.57 -2.50536,-2.9416 -2.13872,-3.4061 0.24442,-0.3096 1.46655,-1.7339 2.71923,-3.1892 3.57472,-4.0872 3.48307,-3.7155 1.03881,-3.7155 h -2.10818 l -1.92485,2.4769 c -1.06936,1.3624 -2.01651,2.4771 -2.13872,2.4462 -0.12221,0 -1.09992,-1.1148 -2.16928,-2.4771 l -1.92485,-2.446 h -2.26094 -2.29148 z"
         id="path3988"
         style="fill:#a6a6a6;fill-opacity:1" />
      <path
         d="m 743.61898,1709.3794 -0.88604,0.898 v 5.14 c 0,2.9724 0.12222,5.4185 0.33608,5.8521 0.67217,1.4862 1.22213,1.6101 7.85217,1.703 6.08009,0.1238 6.17175,0.093 6.17175,-0.5264 0,-0.6193 -0.12221,-0.6503 -4.67464,-0.6503 -3.23863,0 -4.79685,-0.1239 -5.04128,-0.3715 -0.24441,-0.2478 -0.36663,-1.9817 -0.36663,-5.8212 0,-3.8394 0.12222,-5.5735 0.36663,-5.8211 0.24443,-0.2478 1.80265,-0.3717 5.04128,-0.3717 3.94138,0 4.67464,-0.062 4.67464,-0.4644 0,-0.4025 -0.91659,-0.4643 -6.29396,-0.4643 h -6.29395 z"
         id="path3990"
         style="fill:#a6a6a6;fill-opacity:1" />
      <path
         d="m 776.95253,1715.758 v 7.2764 h 2.13873 2.13872 v -6.0379 c 0,-6.038 0,-6.0689 0.76383,-6.812 0.64161,-0.6813 1.00826,-0.7742 3.14698,-0.7742 1.436,0 2.53592,0.1549 2.74979,0.3717 0.27498,0.2786 0.36663,2.2293 0.36663,6.812 v 6.4404 h 2.29151 2.29148 v -6.2856 c 0,-3.437 0.15277,-6.4714 0.30554,-6.7192 0.36663,-0.6193 5.59123,-0.8669 6.2634,-0.3096 0.36664,0.3096 0.4583,1.5482 0.4583,6.843 v 6.4714 h 2.29149 2.29149 v -5.8521 c 0,-3.4679 -0.12222,-6.2238 -0.33608,-6.8121 -0.54995,-1.579 -1.52766,-1.8886 -6.0801,-1.8886 -3.63583,0 -4.03301,0.062 -4.61353,0.6501 l -0.64161,0.6503 -0.42775,-0.6503 c -0.42775,-0.6193 -0.73327,-0.6501 -5.07183,-0.6501 -4.33856,0 -4.67465,0.031 -5.34682,0.6811 l -0.70272,0.6502 v -0.6502 c 0,-0.6503 -0.15277,-0.6811 -2.13872,-0.6811 h -2.13873 z"
         id="path3992"
         style="fill:#a6a6a6;fill-opacity:1" />
      <path
         d="m 734.69744,1713.4666 c -0.33608,0.1858 -0.76383,0.8361 -1.00825,1.4243 -0.39719,0.9599 -0.39719,1.1767 0.0916,2.1985 0.8555,1.7958 2.96368,2.1055 4.36911,0.6811 0.61107,-0.6193 0.82494,-2.1983 0.42776,-3.2511 -0.42776,-1.1147 -2.71925,-1.7341 -3.88027,-1.0528 z"
         id="path3994"
         style="fill:#a6a6a6;fill-opacity:1" />
    </g>
  </g>
</svg>
