<?xml version="1.0" encoding="UTF-8" standalone="no"?>
<!-- Created with Inkscape (http://www.inkscape.org/) -->

<svg
   width="49"
   height="22"
   viewBox="0 0 12.964583 5.8208335"
   version="1.1"
   id="svg7752"
   inkscape:version="1.1.2 (0a00cf5339, 2022-02-04)"
   sodipodi:docname="cc-by.svg"
   xmlns:inkscape="http://www.inkscape.org/namespaces/inkscape"
   xmlns:sodipodi="http://sodipodi.sourceforge.net/DTD/sodipodi-0.dtd"
   xmlns="http://www.w3.org/2000/svg"
   xmlns:svg="http://www.w3.org/2000/svg">
  <sodipodi:namedview
     id="namedview7754"
     pagecolor="#ffffff"
     bordercolor="#666666"
     borderopacity="1.0"
     inkscape:pageshadow="2"
     inkscape:pageopacity="0.0"
     inkscape:pagecheckerboard="0"
     inkscape:document-units="mm"
     showgrid="false"
     inkscape:zoom="5"
     inkscape:cx="4.8"
     inkscape:cy="25.4"
     inkscape:window-width="1920"
     inkscape:window-height="1011"
     inkscape:window-x="0"
     inkscape:window-y="0"
     inkscape:window-maximized="1"
     inkscape:current-layer="layer1"
     units="px"
     width="65px" />
  <defs
     id="defs7749" />
  <g
     inkscape:label="图层 1"
     inkscape:groupmode="layer"
     id="layer1">
    <g
       id="g1053"
       transform="matrix(0.75395253,0,0,0.73311774,-8.8682583e-4,8.5447393e-4)">
      <path
         id="rect5083-4-8-9"
         style="fill:#be87c3;fill-rule:evenodd;stroke:#606060;stroke-width:0.257971;stroke-linecap:round;stroke-linejoin:round;stroke-opacity:1"
         inkscape:connector-curvature="0"
         d="M 0.5929364,0.12781996 H 16.604923 c 0.256374,0 0.462765,0.227401 0.462765,0.50985897 V 7.2998772 c 0,0.2824579 -0.206391,0.5098599 -0.462765,0.5098599 H 0.5929364 c -0.25637616,0 -0.46277467,-0.227402 -0.46277467,-0.5098599 V 0.63767893 c 0,-0.28245797 0.20639851,-0.50985897 0.46277467,-0.50985897 z" />
      <path
         id="rect5083-3-5-5-7"
         style="fill:#dff3f2;fill-rule:evenodd;stroke-width:0.0844234"
         inkscape:connector-curvature="0"
         d="M 0.27413843,5.5582666 H 16.914645 V 7.7366948 H 0.27413843 Z" />
      <g
         id="g6896-5-5-7"
         transform="matrix(0.0308786,0,0,0.03032302,-2.9807603,-12.380532)">
        <path
           id="path5722-0-2-6"
           style="fill:#ffffff;fill-rule:evenodd;stroke:#3e5287;stroke-width:8;stroke-linecap:round;stroke-linejoin:round"
           inkscape:connector-curvature="0"
           d="m 325.66,535.86 c 0,57.251 -46.411,103.66 -103.66,103.66 -57.251,0 -103.66,-46.411 -103.66,-103.66 0,-57.251 46.411,-103.66 103.66,-103.66 57.251,0 103.66,46.411 103.66,103.66 z" />
        <g
           id="flowRoot5799-5-1-1-4-4"
           style="fill:#3e5287"
           transform="matrix(1.7869,0,0,1.7869,-319.12,701.29)">
          <path
             id="path6834-8-8-3"
             style="fill:#3e5287"
             inkscape:connector-curvature="0"
             d="m 301.81,-85.547 c -1.488,7.824 -5.256,13.344 -11.304,16.56 -3.216,1.728 -6.888,2.592 -11.016,2.592 -4.512,-2e-6 -8.592,-0.984 -12.24,-2.952 -3.6,-1.968 -6.456,-4.944 -8.568,-8.928 -2.064,-3.984 -3.096,-8.928 -3.096,-14.832 0,-4.704 0.672,-8.904 2.016,-12.6 2.352,-6.576 6.432,-11.064 12.24,-13.464 3.024,-1.1999 6.288,-1.7999 9.792,-1.8 4.128,6e-5 7.824,0.81606 11.088,2.448 6.672,3.264 10.368,8.592 11.088,15.984 h -10.872 c -0.72004,-2.928 -2.136,-5.184 -4.248,-6.768 -2.064,-1.584 -4.368,-2.376 -6.912,-2.376 -4.128,5e-5 -7.368,1.656 -9.72,4.968 -2.352,3.312 -3.528,7.656 -3.528,13.032 -10e-6,4.656 0.91199,8.592 2.736,11.808 2.208,4.032 5.496,6.048 9.864,6.048 6.432,8e-6 10.368,-3.24 11.808,-9.72 h 10.872" />
          <path
             id="path6836-0-9-0"
             style="fill:#3e5287"
             inkscape:connector-curvature="0"
             d="m 349.62,-85.547 c -1.488,7.824 -5.256,13.344 -11.304,16.56 -3.216,1.728 -6.888,2.592 -11.016,2.592 -4.512,-2e-6 -8.592,-0.984 -12.24,-2.952 -3.6,-1.968 -6.456,-4.944 -8.568,-8.928 -2.064,-3.984 -3.096,-8.928 -3.096,-14.832 0,-4.704 0.672,-8.904 2.016,-12.6 2.352,-6.576 6.432,-11.064 12.24,-13.464 3.024,-1.1999 6.288,-1.7999 9.792,-1.8 4.128,6e-5 7.824,0.81606 11.088,2.448 6.672,3.264 10.368,8.592 11.088,15.984 h -10.872 c -0.72004,-2.928 -2.136,-5.184 -4.248,-6.768 -2.064,-1.584 -4.368,-2.376 -6.912,-2.376 -4.128,5e-5 -7.368,1.656 -9.72,4.968 -2.352,3.312 -3.528,7.656 -3.528,13.032 -10e-6,4.656 0.91199,8.592 2.736,11.808 2.208,4.032 5.496,6.048 9.864,6.048 6.432,8e-6 10.368,-3.24 11.808,-9.72 h 10.872" />
        </g>
      </g>
      <g
         id="flowRoot5799-5-2-14-5-30"
         style="fill:#ffffff;fill-opacity:1"
         transform="matrix(0.05202964,0,0,0.05109351,-3.7684715,8.66983)">
        <path
           id="path6839-3-1-92"
           style="fill:#ffffff;fill-opacity:1"
           inkscape:connector-curvature="0"
           d="m 286.47,-89.003 c -1.584,-1.056 -3.384,-1.584 -5.4,-1.584 h -13.896 v 13.896 h 13.752 c 2.496,8e-6 4.488,-0.79199 5.976,-2.376 1.344,-1.392 2.016,-3.072 2.016,-5.04 -3e-5,-2.208 -0.81603,-3.84 -2.448,-4.896 m 0.936,-15.984 c -3e-5,-2.256 -0.79203,-3.816 -2.376,-4.68 -1.152,-0.62395 -2.928,-0.93595 -5.328,-0.936 h -12.528 v 11.232 h 13.176 c 2.016,3.1e-5 3.648,-0.43197 4.896,-1.296 1.44,-0.95996 2.16,-2.4 2.16,-4.32 m 6.408,33.624 c -3.168,2.352 -7.752,3.528 -13.752,3.528 h -23.328 v -51.768 h 25.488 c 3.216,6e-5 6,0.55205 8.352,1.656 2.208,1.056 3.96,2.76 5.256,5.112 1.344,2.352 2.016,4.824 2.016,7.416 -4e-5,4.896 -2.112,8.136 -6.336,9.72 2.592,0.91203 4.584,2.568 5.976,4.968 1.296,2.16 1.944,4.656 1.944,7.488 -5e-5,5.184 -1.872,9.144 -5.616,11.88" />
        <path
           id="path6841-37-5-5"
           style="fill:#ffffff;fill-opacity:1"
           inkscape:connector-curvature="0"
           d="m 346.22,-119.6 -17.28,32.328 v 19.44 h -10.8 V -87.344 L 300.284,-119.6 h 12.6 l 10.872,21.096 10.08,-21.096 h 12.384" />
      </g>
    </g>
  </g>
</svg>
