<?xml version="1.0" encoding="UTF-8" standalone="no"?>
<!-- Created with Inkscape (http://www.inkscape.org/) -->

<svg
   width="190mm"
   height="79mm"
   viewBox="0 0 718.11022 298.58268"
   version="1.1"
   id="SVGRoot"
   inkscape:version="1.1.2 (0a00cf5339, 2022-02-04)"
   sodipodi:docname="logo_title.svg"
   xmlns:inkscape="http://www.inkscape.org/namespaces/inkscape"
   xmlns:sodipodi="http://sodipodi.sourceforge.net/DTD/sodipodi-0.dtd"
   xmlns:xlink="http://www.w3.org/1999/xlink"
   xmlns="http://www.w3.org/2000/svg"
   xmlns:svg="http://www.w3.org/2000/svg"
   xmlns:rdf="http://www.w3.org/1999/02/22-rdf-syntax-ns#"
   xmlns:cc="http://creativecommons.org/ns#"
   xmlns:dc="http://purl.org/dc/elements/1.1/">
  <defs
     id="defs2816">
    <clipPath
       clipPathUnits="userSpaceOnUse"
       id="clipPath2908-5">
      <path
         d="M 0,600 H 600 V 0 H 0 Z"
         id="path2906-7"
         inkscape:connector-curvature="0" />
    </clipPath>
    <linearGradient
       id="linearGradient3868">
      <stop
         id="stop3870"
         style="stop-color:#ffffff"
         offset="0" />
      <stop
         id="stop3872"
         style="stop-color:#aaaaaa"
         offset="1" />
    </linearGradient>
    <filter
       id="G"
       x="-0.069831288"
       y="-0.052595388"
       width="1.1396626"
       height="1.1051908">
      <feGaussianBlur
         stdDeviation="2.58594"
         id="c" />
    </filter>
    <radialGradient
       xlink:href="#C"
       r="44.419998"
       cy="100.32"
       cx="81.790001"
       gradientTransform="matrix(2.0026052,-1.5970314,1.7773333,2.2286954,-109.08797,-173.56885)"
       gradientUnits="userSpaceOnUse"
       id="J" />
    <linearGradient
       id="C">
      <stop
         id="V"
         stop-color="#eee" />
      <stop
         offset="1"
         id="W"
         stop-color="#d2d2d2" />
    </linearGradient>
    <radialGradient
       xlink:href="#D"
       id="H"
       gradientUnits="userSpaceOnUse"
       gradientTransform="matrix(1,0,0,0.97467889,0,0.43910718)"
       cx="89.510002"
       cy="22.254"
       r="18.278999" />
    <linearGradient
       id="D">
      <stop
         id="X" />
      <stop
         offset="1"
         id="Y"
         stop-opacity="0.536" />
    </linearGradient>
    <filter
       id="F"
       x="-0.14513263"
       width="1.2902653"
       y="-0.17041424"
       height="1.3408285">
      <feGaussianBlur
         stdDeviation="1.81881"
         id="b" />
    </filter>
    <linearGradient
       xlink:href="#E"
       y2="25.1"
       x2="86.82"
       y1="14.793"
       x1="98.330002"
       gradientTransform="matrix(0.96714879,0,0,0.96714879,170.58868,-197.35948)"
       gradientUnits="userSpaceOnUse"
       id="I" />
    <linearGradient
       id="E">
      <stop
         id="Z" />
      <stop
         offset="1"
         id="a"
         stop-color="#ddd"
         stop-opacity="0" />
    </linearGradient>
    <filter
       id="D-4"
       x="-0.069831288"
       y="-0.052595388"
       width="1.1396626"
       height="1.1051908">
      <feGaussianBlur
         stdDeviation="2.58594"
         id="U" />
    </filter>
    <radialGradient
       xlink:href="#C"
       r="44.419998"
       cy="100.32"
       cx="81.790001"
       gradientTransform="matrix(2.0026052,-1.5970314,1.7773333,2.2286954,-21.08797,-113.56885)"
       gradientUnits="userSpaceOnUse"
       id="G-2" />
    <radialGradient
       xlink:href="#D"
       id="E-9"
       gradientUnits="userSpaceOnUse"
       gradientTransform="matrix(1,0,0,0.97467889,0,0.43910718)"
       cx="89.510002"
       cy="22.254"
       r="18.278999" />
    <filter
       id="C-6"
       x="-0.14513263"
       width="1.2902653"
       y="-0.17041424"
       height="1.3408285">
      <feGaussianBlur
         stdDeviation="1.81881"
         id="T" />
    </filter>
    <linearGradient
       xlink:href="#E"
       y2="25.1"
       x2="86.82"
       y1="14.793"
       x1="98.330002"
       gradientTransform="matrix(0.96714879,0,0,0.96714879,258.58868,-137.35948)"
       gradientUnits="userSpaceOnUse"
       id="F-1" />
    <linearGradient
       xlink:href="#J-4"
       gradientUnits="userSpaceOnUse"
       y2="-1579.5"
       x2="1252.01"
       y1="1001.36"
       x1="460.17001"
       id="H-0" />
    <linearGradient
       id="J-4">
      <stop
         id="V-2"
         stop-color="#62200c" />
      <stop
         offset="0.256"
         id="W-2"
         stop-color="#efce37"
         stop-opacity="0.749" />
      <stop
         offset="0.5"
         id="X-2"
         stop-color="#aa7663"
         stop-opacity="0.498" />
      <stop
         id="Y-0"
         offset="1"
         stop-color="#9b9b9b"
         stop-opacity="0" />
    </linearGradient>
    <radialGradient
       xlink:href="#K"
       spreadMethod="repeat"
       gradientUnits="userSpaceOnUse"
       gradientTransform="matrix(0.645123,-0.015013,0.00245682,0.105545,396.436,117.802)"
       r="512.5"
       cy="-543.90002"
       cx="-380.29999"
       id="I-5" />
    <linearGradient
       id="K">
      <stop
         id="Z-5"
         stop-color="#da7a20" />
      <stop
         id="a-2"
         offset="1"
         stop-color="#da7a20"
         stop-opacity="0" />
    </linearGradient>
    <filter
       id="G-8"
       x="-0.069831288"
       y="-0.052595388"
       width="1.1396626"
       height="1.1051908">
      <feGaussianBlur
         stdDeviation="2.58594"
         id="c-3" />
    </filter>
    <radialGradient
       xlink:href="#C"
       r="44.419998"
       cy="100.32"
       cx="81.790001"
       gradientTransform="matrix(2.0026052,-1.5970314,1.7773333,2.2286954,-172.46297,-228.60791)"
       gradientUnits="userSpaceOnUse"
       id="J-3" />
    <radialGradient
       xlink:href="#D"
       id="H-04"
       gradientUnits="userSpaceOnUse"
       gradientTransform="matrix(1,0,0,0.97467889,0,0.43910718)"
       cx="89.510002"
       cy="22.254"
       r="18.278999" />
    <filter
       id="F-8"
       x="-0.14513263"
       width="1.2902653"
       y="-0.17041424"
       height="1.3408285">
      <feGaussianBlur
         stdDeviation="1.81881"
         id="b-9" />
    </filter>
    <linearGradient
       xlink:href="#E"
       y2="25.1"
       x2="86.82"
       y1="14.793"
       x1="98.330002"
       gradientTransform="matrix(0.96714879,0,0,0.96714879,107.21368,-252.39854)"
       gradientUnits="userSpaceOnUse"
       id="I-0" />
    <filter
       id="D-7"
       x="-0.069831288"
       y="-0.052595388"
       width="1.1396626"
       height="1.1051908">
      <feGaussianBlur
         stdDeviation="2.58594"
         id="U-9" />
    </filter>
    <radialGradient
       xlink:href="#C"
       r="44.419998"
       cy="100.32"
       cx="81.790001"
       gradientTransform="matrix(2.0026024,-1.5970375,1.7773308,2.2287039,11.537448,-228.60783)"
       gradientUnits="userSpaceOnUse"
       id="G-0" />
    <radialGradient
       xlink:href="#D"
       id="E-3"
       gradientUnits="userSpaceOnUse"
       gradientTransform="matrix(1,0,0,0.97467889,0,0.43910718)"
       cx="89.510002"
       cy="22.254"
       r="18.278999" />
    <filter
       id="C-3"
       x="-0.14513263"
       width="1.2902653"
       y="-0.17041424"
       height="1.3408285">
      <feGaussianBlur
         stdDeviation="1.81881"
         id="T-3" />
    </filter>
    <linearGradient
       xlink:href="#E"
       y2="25.1"
       x2="86.82"
       y1="14.793"
       x1="98.330002"
       gradientTransform="matrix(0.96714879,0,0,0.96714879,291.21368,-252.39854)"
       gradientUnits="userSpaceOnUse"
       id="F-7" />
    <linearGradient
       xlink:href="#J-4"
       gradientUnits="userSpaceOnUse"
       y2="-1579.5"
       x2="1252.01"
       y1="1001.36"
       x1="460.17001"
       id="H-3" />
    <radialGradient
       xlink:href="#K"
       spreadMethod="repeat"
       gradientUnits="userSpaceOnUse"
       gradientTransform="matrix(0.645123,-0.015013,0.00245682,0.105545,396.436,117.802)"
       r="512.5"
       cy="-543.90002"
       cx="-380.29999"
       id="I-8" />
    <filter
       id="D-7-1"
       x="-0.069831288"
       y="-0.052595388"
       width="1.1396626"
       height="1.1051908">
      <feGaussianBlur
         stdDeviation="2.58594"
         id="U-9-2" />
    </filter>
    <clipPath
       id="_clip1">
      <circle
         cx="20.177999"
         cy="20.177999"
         r="20.177999"
         id="circle1025" />
    </clipPath>
    <clipPath
       id="_clip2">
      <path
         inkscape:connector-curvature="0"
         d="m 7.732,17.39 c 0,-7.687 4.922,-11.191 12.242,-11.095 7.359,0.096 12.218,3.44 12.218,11.218 l -0.012,7.383 h -4.49 v -5.45 c -0.121,-1.892 0.501,-8.229 -7.665,-8.229 -8.221,0 -7.738,6.36 -7.708,8.267 v 5.412 H 7.732 Z"
         id="path1028" />
    </clipPath>
    <linearGradient
       id="_Linear3"
       x1="0"
       y1="0"
       x2="1"
       y2="0"
       gradientUnits="userSpaceOnUse"
       gradientTransform="matrix(0,66.3422,-63.8968,0,7.73175,6.29286)">
      <stop
         offset="0"
         style="stop-color:#babdb6;stop-opacity:0"
         id="stop1108" />
      <stop
         offset="0.5"
         style="stop-color:#eeeeec;stop-opacity:0"
         id="stop1110" />
      <stop
         offset="1"
         style="stop-color:#babdb6;stop-opacity:0"
         id="stop1112" />
    </linearGradient>
    <clipPath
       id="_clip4">
      <rect
         x="-80.504997"
         y="-16.318001"
         width="124.798"
         height="259.14899"
         id="rect1033" />
    </clipPath>
    <clipPath
       id="_clip6">
      <path
         style="clip-rule:nonzero"
         inkscape:connector-curvature="0"
         d="m 8.448,17.39 c 0,-3.525 1.077,-6.158 3.114,-7.891 1.964,-1.67 4.832,-2.507 8.403,-2.46 3.633,0.047 6.483,0.905 8.423,2.559 2.027,1.729 3.088,4.348 3.088,7.915 l -0.013,7.382 0.717,-0.743 h -4.49 l 0.716,0.744 v -5.45 -0.025 l -10e-4,-0.024 c -0.007,-0.114 -0.012,-0.242 -0.018,-0.488 -0.019,-0.772 -0.032,-1.082 -0.079,-1.57 -0.067,-0.699 -0.185,-1.347 -0.373,-1.967 -0.422,-1.394 -1.172,-2.548 -2.333,-3.396 -1.349,-0.985 -3.19,-1.503 -5.577,-1.503 -2.403,0 -4.265,0.52 -5.636,1.507 -1.183,0.853 -1.954,2.016 -2.383,3.411 -0.208,0.677 -0.329,1.387 -0.385,2.138 -0.039,0.539 -0.043,0.987 -0.028,1.657 10e-4,0.012 0.003,0.132 0.004,0.165 0.001,0.058 0.002,0.103 0.003,0.145 v -0.012 5.412 l 0.717,-0.744 H 7.732 l 0.716,0.744 z m -1.433,0 v 8.25 h 6.018 v -0.744 -5.412 -0.012 c -10e-4,-0.045 -0.002,-0.094 -0.003,-0.155 -10e-4,-0.034 -0.003,-0.155 -0.004,-0.165 -0.014,-0.625 -0.01,-1.031 0.025,-1.51 0.047,-0.643 0.149,-1.241 0.321,-1.799 0.337,-1.097 0.926,-1.985 1.834,-2.64 1.112,-0.801 2.691,-1.242 4.819,-1.242 2.109,0 3.663,0.437 4.752,1.232 0.887,0.648 1.458,1.527 1.791,2.625 0.156,0.515 0.255,1.065 0.313,1.669 0.043,0.439 0.055,0.725 0.073,1.46 0.007,0.266 0.012,0.408 0.021,0.548 l -0.002,-0.049 v 6.194 h 5.922 l 0.002,-0.742 0.012,-7.384 c 0,-3.992 -1.234,-7.038 -3.611,-9.066 C 27.075,6.553 23.915,5.602 19.983,5.551 11.896,5.445 7.015,9.596 7.015,17.39 Z"
         id="path1044" />
    </clipPath>
    <linearGradient
       id="_Linear7"
       x1="0"
       y1="0"
       x2="1"
       y2="0"
       gradientUnits="userSpaceOnUse"
       gradientTransform="matrix(0,66.3422,-63.8968,0,7.73175,6.29286)">
      <stop
         offset="0"
         style="stop-color:#333530;stop-opacity:0"
         id="stop1116" />
      <stop
         offset="1"
         style="stop-color:#828282;stop-opacity:0"
         id="stop1118" />
    </linearGradient>
    <clipPath
       id="_clip8">
      <rect
         x="-80.504997"
         y="-16.318001"
         width="124.798"
         height="259.14899"
         id="rect1049" />
    </clipPath>
    <linearGradient
       id="_Linear10"
       x1="0"
       y1="0"
       x2="1"
       y2="0"
       gradientUnits="userSpaceOnUse"
       gradientTransform="matrix(0,-6.96631,4.70908,0,29.1589,24.3317)">
      <stop
         offset="0"
         style="stop-color:#fff;stop-opacity:1"
         id="stop1122" />
      <stop
         offset="1"
         style="stop-color:#fff;stop-opacity:0"
         id="stop1124" />
    </linearGradient>
    <clipPath
       id="_clip11">
      <path
         inkscape:connector-curvature="0"
         d="M 8.415,17.832 C 8.653,11.887 10.125,7.41 19.942,7.031 c -6.357,1.006 -9.815,3.09 -9.815,9.305 L 9.969,24.039 H 8.415 Z"
         id="path1062" />
    </clipPath>
    <linearGradient
       id="_Linear12"
       x1="0"
       y1="0"
       x2="1"
       y2="0"
       gradientUnits="userSpaceOnUse"
       gradientTransform="matrix(0,66.2428,-65.5821,0,8.4152,7.03103)">
      <stop
         offset="0"
         style="stop-color:#fff;stop-opacity:0"
         id="stop1127" />
      <stop
         offset="1"
         style="stop-color:#fff;stop-opacity:0"
         id="stop1129" />
    </linearGradient>
    <clipPath
       id="_clip13">
      <rect
         x="-82.849998"
         y="-16.257"
         width="128.09"
         height="258.76099"
         id="rect1067" />
    </clipPath>
    <linearGradient
       id="_Linear15"
       x1="0"
       y1="0"
       x2="1"
       y2="0"
       gradientUnits="userSpaceOnUse"
       gradientTransform="matrix(31.1842,0,0,22.045,4.19704,36.1988)">
      <stop
         offset="0"
         style="stop-color:#02c49a;stop-opacity:1"
         id="stop1133" />
      <stop
         offset="0.21"
         style="stop-color:#009f00;stop-opacity:1"
         id="stop1135" />
      <stop
         offset="0.85"
         style="stop-color:#01af17;stop-opacity:1"
         id="stop1137" />
      <stop
         offset="1"
         style="stop-color:#40c965;stop-opacity:1"
         id="stop1139" />
    </linearGradient>
    <linearGradient
       id="_Linear16"
       x1="0"
       y1="0"
       x2="1"
       y2="0"
       gradientUnits="userSpaceOnUse"
       gradientTransform="matrix(8.45125,12.9104,-12.9104,8.45125,4.26243,24.9563)">
      <stop
         offset="0"
         style="stop-color:#fff;stop-opacity:1"
         id="stop1142" />
      <stop
         offset="0.53"
         style="stop-color:#fff;stop-opacity:0.77"
         id="stop1144" />
      <stop
         offset="1"
         style="stop-color:#fff;stop-opacity:0"
         id="stop1146" />
    </linearGradient>
  </defs>
  <sodipodi:namedview
     id="base"
     pagecolor="#ffffff"
     bordercolor="#666666"
     borderopacity="1.0"
     inkscape:pageopacity="0.0"
     inkscape:pageshadow="2"
     inkscape:zoom="1.23"
     inkscape:cx="343.90244"
     inkscape:cy="176.42276"
     inkscape:document-units="px"
     inkscape:current-layer="layer1"
     showgrid="false"
     inkscape:window-width="1920"
     inkscape:window-height="1011"
     inkscape:window-x="0"
     inkscape:window-y="0"
     inkscape:window-maximized="1"
     units="mm"
     showguides="true"
     inkscape:guide-bbox="true"
     inkscape:pagecheckerboard="0" />
  <metadata
     id="metadata2819">
    <rdf:RDF>
      <cc:Work
         rdf:about="">
        <dc:format>image/svg+xml</dc:format>
        <dc:type
           rdf:resource="http://purl.org/dc/dcmitype/StillImage" />
        <cc:license
           rdf:resource="http://creativecommons.org/licenses/by-nc-sa/4.0/" />
      </cc:Work>
      <cc:License
         rdf:about="http://creativecommons.org/licenses/by-nc-sa/4.0/">
        <cc:permits
           rdf:resource="http://creativecommons.org/ns#Reproduction" />
        <cc:permits
           rdf:resource="http://creativecommons.org/ns#Distribution" />
        <cc:requires
           rdf:resource="http://creativecommons.org/ns#Notice" />
        <cc:requires
           rdf:resource="http://creativecommons.org/ns#Attribution" />
        <cc:prohibits
           rdf:resource="http://creativecommons.org/ns#CommercialUse" />
        <cc:permits
           rdf:resource="http://creativecommons.org/ns#DerivativeWorks" />
        <cc:requires
           rdf:resource="http://creativecommons.org/ns#ShareAlike" />
      </cc:License>
    </rdf:RDF>
  </metadata>
  <g
     inkscape:label="Layer 1"
     inkscape:groupmode="layer"
     id="layer1"
     transform="translate(0,-1.4173228)">
    <rect
       style="fill:#ffffff;fill-opacity:0.29222304;stroke:#969696;stroke-width:0;stroke-miterlimit:4;stroke-dasharray:none"
       id="rect1455"
       width="718.11023"
       height="298.58267"
       x="5e-07"
       y="1.4173234" />
    <path
       inkscape:connector-curvature="0"
       id="path7927"
       d="m 87.23956,239.4565 c -1.10086,-0.4442 -0.58923,-1.00873 1.64363,-1.81356 1.70872,-0.61592 4.70284,-0.88728 12.7968,-1.15979 11.76512,-0.39611 15.35619,-1.12067 22.27462,-4.49425 4.91425,-2.3963 11.19779,-7.71845 9.11269,-7.71845 -0.28407,0 -2.33786,0.62457 -4.56393,1.38794 -2.22607,0.76338 -5.62711,1.63234 -7.55785,1.93102 -4.23744,0.65553 -18.15114,0.39896 -19.48153,-0.35924 -1.02612,-0.5848 -1.17549,-0.55688 8.11858,-1.51776 13.46917,-1.39255 23.3662,-6.2249 29.97354,-14.63498 1.55836,-1.98353 2.31351,-2.62689 2.58365,-2.20116 0.20996,0.33086 0.38496,7.08465 0.38891,15.00844 0.006,12.47745 -0.0916,14.50573 -0.73076,15.14485 -0.65441,0.6544 -3.75152,0.73376 -27.35464,0.70088 -14.63918,-0.0204 -26.88086,-0.14366 -27.20371,-0.27394 z m 80.83696,-0.14199 c -8.06821,-1.23636 -13.57066,-5.83185 -16.24376,-13.56633 -1.4695,-4.25192 -1.5528,-13.41477 -0.16059,-17.66369 1.23437,-3.76726 4.204,-8.06489 7.06518,-10.22471 6.01953,-4.54399 15.69223,-5.6739 24.25629,-2.83351 l 2.51135,0.83292 0.14196,2.46544 c 0.1553,2.69758 -0.27662,3.04704 -2.14694,1.73703 -2.12552,-1.48878 -6.29419,-2.55884 -9.96851,-2.55884 -7.7543,0 -12.85243,4.6542 -14.36098,13.11047 -0.82534,4.62648 -0.81516,8.42411 0.0333,12.42893 1.25777,5.93678 3.9864,9.83856 8.17663,11.6921 3.86078,1.70781 11.11897,1.05 12.27636,-1.11262 0.28618,-0.53474 0.46899,-4.40939 0.44688,-9.47194 -0.0208,-4.71187 -0.0287,-8.8312 -0.0181,-9.15405 0.0136,-0.41535 1.0418,-0.58701 3.5162,-0.58701 h 3.49709 l 0.14237,10.68357 c 0.0886,6.6514 -0.0348,10.89508 -0.32723,11.24396 -0.81766,0.97571 -8.29753,2.83679 -12.44461,3.09636 -2.1954,0.13742 -5.07212,0.0843 -6.39266,-0.11808 z m 152.91029,-0.0314 c -11.03416,-1.7176 -17.36161,-9.92733 -17.36161,-22.52633 0,-11.42643 5.21229,-19.25304 14.77237,-22.18173 4.18998,-1.28358 11.26374,-1.35358 15.72728,-0.15564 4.56243,1.22448 4.70705,1.3486 4.70705,4.03919 0,2.49126 -0.44767,2.8482 -2.12614,1.69521 -2.2717,-1.56049 -6.39595,-2.65095 -10.02627,-2.65095 -3.14767,0 -4.0696,0.20258 -6.53963,1.43685 -5.67665,2.83666 -8.5289,8.79508 -8.5289,17.81707 0,9.08354 3.1335,15.43984 8.86426,17.98115 2.67827,1.18767 7.91491,1.28483 10.48115,0.19446 l 1.75141,-0.74417 0.12703,-9.77234 0.12699,-9.77233 3.62222,-0.13686 3.62222,-0.13682 0.13462,10.70302 c 0.0837,6.6528 -0.0431,10.91508 -0.33494,11.2634 -0.81706,0.975 -8.29597,2.83664 -12.44461,3.09769 -2.19541,0.13814 -5.15393,0.0703 -6.5745,-0.15087 z m -82.56556,-1.20469 c -1.81675,-0.90533 -2.77795,-1.78229 -3.73168,-3.40466 l -1.28461,-2.18524 -0.14838,-14.20564 -0.14839,-14.20563 h 3.53243 3.53241 l 0.13803,13.35037 c 0.13123,12.69237 0.18641,13.41568 1.11978,14.67524 2.11539,2.85468 7.61061,3.23435 10.58526,0.73136 2.6058,-2.19264 2.75602,-3.0949 2.75602,-16.55266 v -12.24542 l 3.40466,0.13799 3.40466,0.13796 v 17.14068 17.14069 h -3.28726 -3.28725 l -0.14717,-1.52623 c -0.0809,-0.83942 -0.25353,-1.52622 -0.38354,-1.52622 -0.13002,0 -0.92046,0.52176 -1.75655,1.15948 -2.5129,1.91669 -4.71596,2.59738 -8.40644,2.59738 -2.76748,0 -3.92616,-0.23982 -5.89199,-1.21942 z m -42.60578,0.16033 c -0.12442,-0.32421 -0.1706,-8.09035 -0.10265,-17.25809 l 0.12352,-16.66861 h 3.28725 3.28726 l 0.14717,1.52622 c 0.17182,1.78189 0.54737,1.89546 1.77589,0.53704 1.53554,-1.69789 4.49165,-2.89706 7.70391,-3.12513 5.40929,-0.38407 9.30184,1.37473 11.15318,5.03943 1.02656,2.03204 1.05662,2.49677 1.05662,16.33565 v 14.2441 l -3.34955,-0.13795 -3.34955,-0.13799 0.0555,-11.74019 c 0.064,-13.5392 -0.17805,-15.40037 -2.24229,-17.24477 -1.28481,-1.14797 -1.83358,-1.30474 -4.56727,-1.30474 -3.59837,0 -5.49539,0.9172 -6.97474,3.37222 -0.86732,1.43935 -0.95031,2.53826 -1.08422,14.35547 l -0.14498,12.79681 h -3.27439 c -2.1936,0 -3.34906,-0.19457 -3.50059,-0.58946 z m 75.39291,-21.71691 v -22.30636 h 8.86863 c 10.10404,0 12.4059,0.46933 15.56527,3.17362 6.10556,5.22613 5.26141,15.57218 -1.59855,19.59239 -3.05847,1.79238 -4.66938,2.19327 -10.15593,2.52735 l -4.93089,0.30025 -0.12714,9.50955 -0.12711,9.50956 h -3.74714 -3.74714 z m 16.28476,-1.33047 c 2.91679,-1.50833 4.38175,-4.48111 4.37026,-8.86841 -0.0155,-5.88598 -3.42071,-8.9762 -9.61045,-8.72121 l -3.29604,0.13576 -0.12805,8.88824 c -0.0977,6.78335 0.0136,8.98605 0.46961,9.30124 0.85845,0.59319 6.62629,0.0754 8.19469,-0.73564 z m -174.77736,-0.18539 c 0.25829,-0.25338 2.05454,-0.82917 3.99166,-1.27951 7.54378,-1.7538 14.26323,-5.15959 20.67799,-10.48077 2.09521,-1.73802 4.05836,-3.16005 4.36256,-3.16005 0.63081,0 1.01582,5.34545 0.4397,6.1049 -0.19593,0.25829 -1.51852,1.07338 -2.93908,1.81132 -1.42056,0.73794 -4.16777,2.16108 -6.1049,3.16253 -1.93714,1.00145 -5.21264,2.25677 -7.27892,2.78959 -4.07317,1.05033 -13.95304,1.84078 -13.14901,1.05199 z m -37.490352,-0.44076 c -0.391254,-0.39125 -0.417364,-19.53147 -0.02804,-20.54606 0.198166,-0.51641 0.894468,-0.74281 2.284488,-0.74281 h 1.999437 l 0.243062,-9.50957 c 0.21925,-8.57743 0.363065,-9.88141 1.467355,-13.30324 6.66601,-20.65586 32.63409,-26.97925 47.92358,-11.66968 6.54092,6.5495 8.71155,13.41992 8.72061,27.60217 l 0.004,6.03388 -1.4077,1.315 c -1.7704,1.6538 -8.31765,4.41792 -13.90992,5.87248 -4.59676,1.19564 -14.04598,2.65787 -22.63424,3.50258 -9.26127,0.91089 -15.84274,3.7109 -21.291196,9.05808 -2.946361,2.8916 -2.899833,2.85865 -3.371305,2.38717 z m 48.760932,-30.44623 c 0,-8.1535 -0.0875,-9.1118 -1.01478,-11.11828 -1.43726,-3.10991 -4.51551,-6.25587 -7.60651,-7.77382 -3.51863,-1.72795 -9.40385,-1.85718 -12.82836,-0.28165 -3.1058,1.42888 -6.25432,4.50777 -7.77382,7.60193 -1.24957,2.54451 -1.3072,2.98019 -1.45691,11.0155 -0.0857,4.60141 -0.0384,8.67232 0.10515,9.04647 0.22186,0.5781 2.53743,0.66165 15.41813,0.55634 l 15.15709,-0.12393 z M 88.04845,168.40727 c 2.25721,-3.51757 7.00549,-7.69745 10.90958,-9.60366 4.69244,-2.29112 8.19054,-3.08912 13.73901,-3.1342 l 4.71481,-0.0383 -1.64363,-0.76949 c -1.22178,-0.572 -2.96937,-0.76399 -6.80931,-0.74802 -5.73369,0.0238 -8.67524,0.85114 -13.14901,3.69809 -4.1438,2.63694 -9.62696,9.58759 -9.62696,12.20347 0,1.11809 0.26014,0.89389 1.86551,-1.60787 z"
       style="fill:#0093dd;fill-opacity:1;stroke:#7fbfff;stroke-width:0.469999;stroke-miterlimit:4;stroke-dasharray:none;stroke-opacity:0" />
    <rect
       style="fill:#cacbce;fill-opacity:1;stroke:#f8f8f8;stroke-width:0;stroke-opacity:0.179516"
       id="rect1901"
       width="660"
       height="47"
       x="30"
       y="237.41733"
       ry="9.8432598" />
  </g>
</svg>
